<svg xmlns="http://www.w3.org/2000/svg" xmlns:xlink="http://www.w3.org/1999/xlink" width="300" zoomAndPan="magnify" viewBox="0 0 224.87999 37.5" height="50" preserveAspectRatio="xMidYMid meet" version="1.0"><defs><clipPath id="8aa1279e10"><path d="M 182 0.648438 L 223.339844 0.648438 L 223.339844 36.914062 L 182 36.914062 Z M 182 0.648438 " clip-rule="nonzero"/></clipPath><clipPath id="54bcdfb682"><path d="M 1.421875 0.648438 L 43 0.648438 L 43 36.914062 L 1.421875 36.914062 Z M 1.421875 0.648438 " clip-rule="nonzero"/></clipPath><clipPath id="828c7c5dbc"><path d="M 180 0.648438 L 221.382812 0.648438 L 221.382812 36.175781 L 180 36.175781 Z M 180 0.648438 " clip-rule="nonzero"/></clipPath><clipPath id="7ad335df3d"><path d="M 3.042969 0.648438 L 44 0.648438 L 44 36.175781 L 3.042969 36.175781 Z M 3.042969 0.648438 " clip-rule="nonzero"/></clipPath></defs><g clip-path="url(#8aa1279e10)"><path fill="#d3a100" d="M 214.96875 21.300781 C 213.414062 22.851562 211.007812 22.875 209.589844 21.34375 C 208.179688 19.816406 208.292969 17.3125 209.851562 15.757812 C 211.40625 14.203125 213.8125 14.179688 215.226562 15.710938 C 216.636719 17.238281 216.523438 19.742188 214.96875 21.300781 Z M 222.023438 17.101562 C 221.414062 15.878906 221.820312 14.859375 221.25 13.675781 C 220.679688 12.492188 220.085938 12.839844 218.988281 12.960938 C 217.882812 13.082031 217.351562 12.878906 217.066406 12.429688 C 216.78125 11.980469 217.433594 10.917969 217.964844 10.023438 C 218.496094 9.125 218.066406 8.699219 217.1875 7.777344 C 216.3125 6.859375 215.742188 6.617188 214.882812 6.65625 C 214.027344 6.695312 213.351562 8.0625 212.722656 7.882812 C 212.089844 7.695312 211.292969 6.738281 211.351562 5.820312 C 211.414062 4.902344 211.988281 3.882812 211.375 2.289062 C 210.761719 0.699219 208.84375 0.65625 208.640625 0.820312 C 208.4375 0.984375 209.191406 3.574219 207.96875 5.492188 C 206.742188 7.410156 205.785156 7.390625 205.664062 7.390625 C 205.539062 7.390625 205.457031 7.59375 205.480469 7.984375 C 205.5 8.371094 206.082031 8.722656 206.53125 9.582031 C 206.980469 10.4375 207.511719 11.867188 207.226562 13.460938 C 206.9375 15.054688 204.367188 18.367188 201.710938 16.117188 C 199.054688 13.871094 201.480469 11.125 201.640625 10.960938 C 201.804688 10.796875 201.84375 10.550781 201.132812 10.125 C 200.417969 9.695312 199.683594 9.738281 198.804688 9.878906 C 197.929688 10.023438 197.542969 10.820312 197.152344 10.757812 C 196.765625 10.695312 196.765625 10.535156 196.238281 9.921875 C 195.703125 9.308594 195.277344 9.125 194.214844 9.25 C 193.152344 9.371094 192.238281 10.492188 192.277344 10.738281 C 192.320312 10.980469 192.871094 11.371094 193.5 12.246094 C 194.132812 13.125 193.988281 14.769531 193.089844 16.160156 C 192.191406 17.546875 188.390625 19.222656 185.859375 15.136719 C 185.535156 14.617188 185.3125 14.101562 185.167969 13.601562 L 182.542969 16.226562 C 183.242188 16.96875 183.566406 17.609375 183.695312 17.8125 C 184.0625 18.390625 184.570312 18.492188 184.304688 18.941406 C 184.039062 19.386719 184.066406 19.269531 183.585938 19.6875 C 183.335938 19.902344 182.835938 20.328125 182.292969 21.125 L 185.613281 24.445312 C 186.328125 23.027344 187.703125 21.972656 188.953125 21.734375 C 190.96875 21.347656 192.605469 22.609375 192.992188 24.425781 C 193.378906 26.242188 192.378906 27.367188 192.050781 27.367188 C 191.726562 27.367188 191.582031 27.671875 191.523438 27.894531 C 191.460938 28.121094 192.847656 29.183594 194.542969 28.714844 C 196.238281 28.242188 196.195312 26.570312 196.253906 26.304688 C 196.316406 26.039062 196.664062 25.855469 197.03125 26.265625 C 197.398438 26.671875 197.867188 27.628906 199.355469 28.46875 C 200.847656 29.304688 202.050781 28.714844 202.253906 28.507812 C 202.457031 28.304688 202.253906 28.179688 201.113281 26.507812 C 199.96875 24.835938 201.417969 22.855469 202.742188 22.511719 C 204.070312 22.164062 205.761719 22.0625 207.234375 24.511719 C 208.703125 26.957031 206.558594 28.570312 206.640625 28.898438 C 206.726562 29.222656 207.558594 29.773438 208.417969 31.078125 C 209.273438 32.386719 208.945312 35.121094 208.742188 35.648438 C 208.539062 36.179688 208.273438 36.566406 208.621094 36.792969 C 208.96875 37.015625 211.351562 36.546875 213.210938 34.039062 C 215.066406 31.527344 212.515625 29.710938 212.984375 29.203125 C 213.457031 28.691406 214.007812 29.367188 214.355469 29.710938 C 214.699219 30.058594 216.414062 31.648438 218.148438 29.222656 C 219.882812 26.792969 217.433594 24.835938 216.984375 24.46875 C 216.539062 24.101562 216.863281 23.980469 217.085938 23.878906 C 217.3125 23.773438 218.269531 23.957031 219.535156 23.183594 C 220.800781 22.40625 221.597656 20.671875 222.191406 19.917969 C 222.78125 19.164062 223.289062 19.265625 223.289062 18.898438 C 223.289062 18.53125 222.636719 18.328125 222.023438 17.101562 " fill-opacity="1" fill-rule="evenodd"/></g><g clip-path="url(#54bcdfb682)"><path fill="#d3a100" d="M 9.65625 15.710938 C 11.066406 14.179688 13.476562 14.203125 15.03125 15.757812 C 16.585938 17.3125 16.703125 19.816406 15.289062 21.34375 C 13.875 22.875 11.464844 22.851562 9.910156 21.300781 C 8.355469 19.742188 8.238281 17.238281 9.65625 15.710938 Z M 1.589844 18.898438 C 1.589844 19.265625 2.097656 19.164062 2.691406 19.917969 C 3.28125 20.671875 4.078125 22.40625 5.34375 23.183594 C 6.605469 23.957031 7.566406 23.773438 7.792969 23.878906 C 8.015625 23.980469 8.34375 24.101562 7.894531 24.46875 C 7.445312 24.835938 4.996094 26.792969 6.730469 29.222656 C 8.464844 31.648438 10.179688 30.058594 10.527344 29.710938 C 10.875 29.367188 11.421875 28.691406 11.894531 29.203125 C 12.363281 29.710938 9.8125 31.527344 11.671875 34.039062 C 13.523438 36.546875 15.914062 37.015625 16.261719 36.792969 C 16.605469 36.566406 16.339844 36.179688 16.136719 35.648438 C 15.933594 35.121094 15.605469 32.386719 16.464844 31.078125 C 17.320312 29.773438 18.15625 29.222656 18.238281 28.898438 C 18.320312 28.570312 16.175781 26.957031 17.648438 24.511719 C 19.117188 22.0625 20.808594 22.164062 22.136719 22.511719 C 23.460938 22.855469 24.910156 24.835938 23.765625 26.507812 C 22.625 28.179688 22.421875 28.304688 22.625 28.507812 C 22.828125 28.714844 24.035156 29.304688 25.523438 28.46875 C 27.011719 27.628906 27.480469 26.671875 27.847656 26.265625 C 28.214844 25.855469 28.5625 26.039062 28.625 26.304688 C 28.683594 26.570312 28.644531 28.242188 30.339844 28.714844 C 32.03125 29.183594 33.417969 28.121094 33.359375 27.894531 C 33.296875 27.671875 33.152344 27.367188 32.828125 27.367188 C 32.5 27.367188 31.5 26.242188 31.890625 24.425781 C 32.277344 22.609375 33.910156 21.347656 35.929688 21.734375 C 37.175781 21.972656 38.550781 23.027344 39.265625 24.445312 L 42.585938 21.125 C 42.042969 20.328125 41.542969 19.902344 41.292969 19.6875 C 40.816406 19.269531 40.839844 19.386719 40.574219 18.941406 C 40.308594 18.492188 40.820312 18.390625 41.1875 17.8125 C 41.3125 17.609375 41.636719 16.96875 42.335938 16.226562 L 39.714844 13.601562 C 39.566406 14.101562 39.34375 14.617188 39.023438 15.136719 C 36.488281 19.222656 32.6875 17.546875 31.789062 16.160156 C 30.890625 14.769531 30.746094 13.125 31.378906 12.246094 C 32.011719 11.371094 32.5625 10.980469 32.601562 10.738281 C 32.644531 10.492188 31.726562 9.371094 30.664062 9.25 C 29.605469 9.125 29.175781 9.308594 28.644531 9.921875 C 28.113281 10.535156 28.113281 10.695312 27.726562 10.757812 C 27.335938 10.820312 26.949219 10.023438 26.074219 9.878906 C 25.195312 9.738281 24.460938 9.695312 23.746094 10.125 C 23.035156 10.550781 23.074219 10.796875 23.238281 10.960938 C 23.398438 11.125 25.824219 13.871094 23.167969 16.117188 C 20.515625 18.367188 17.941406 15.054688 17.65625 13.460938 C 17.371094 11.867188 17.898438 10.4375 18.347656 9.582031 C 18.796875 8.722656 19.378906 8.371094 19.398438 7.984375 C 19.421875 7.59375 19.339844 7.390625 19.21875 7.390625 C 19.09375 7.390625 18.136719 7.410156 16.910156 5.492188 C 15.6875 3.574219 16.441406 0.984375 16.238281 0.820312 C 16.035156 0.65625 14.117188 0.699219 13.503906 2.289062 C 12.894531 3.882812 13.464844 4.902344 13.523438 5.820312 C 13.585938 6.738281 12.789062 7.695312 12.15625 7.882812 C 11.527344 8.0625 10.851562 6.695312 9.996094 6.65625 C 9.136719 6.617188 8.566406 6.859375 7.691406 7.777344 C 6.8125 8.699219 6.382812 9.125 6.914062 10.023438 C 7.445312 10.917969 8.097656 11.980469 7.8125 12.429688 C 7.527344 12.878906 6.996094 13.082031 5.894531 12.960938 C 4.792969 12.839844 4.199219 12.492188 3.628906 13.675781 C 3.058594 14.859375 3.464844 15.878906 2.855469 17.101562 C 2.242188 18.328125 1.589844 18.53125 1.589844 18.898438 " fill-opacity="1" fill-rule="evenodd"/></g><path fill="#d3a100" d="M 39.609375 20.003906 L 185.90625 20.003906 L 185.90625 17.597656 L 39.609375 17.597656 L 39.609375 20.003906 " fill-opacity="1" fill-rule="evenodd"/><g clip-path="url(#828c7c5dbc)"><path fill="#ddae48" d="M 212.945312 20.945312 C 211.417969 22.472656 209.050781 22.492188 207.660156 20.988281 C 206.273438 19.484375 206.382812 17.027344 207.914062 15.496094 C 209.441406 13.96875 211.808594 13.949219 213.199219 15.453125 C 214.585938 16.953125 214.472656 19.414062 212.945312 20.945312 Z M 219.882812 16.820312 C 219.28125 15.617188 219.679688 14.613281 219.121094 13.449219 C 218.558594 12.289062 217.976562 12.628906 216.894531 12.75 C 215.808594 12.871094 215.289062 12.667969 215.007812 12.226562 C 214.726562 11.785156 215.367188 10.742188 215.890625 9.863281 C 216.410156 8.980469 215.988281 8.558594 215.128906 7.65625 C 214.265625 6.753906 213.703125 6.511719 212.863281 6.554688 C 212.019531 6.59375 211.359375 7.9375 210.738281 7.757812 C 210.117188 7.574219 209.335938 6.632812 209.394531 5.730469 C 209.453125 4.828125 210.015625 3.824219 209.414062 2.261719 C 208.8125 0.699219 206.925781 0.65625 206.726562 0.816406 C 206.527344 0.976562 207.269531 3.527344 206.066406 5.410156 C 204.863281 7.292969 203.917969 7.277344 203.800781 7.277344 C 203.679688 7.277344 203.597656 7.476562 203.617188 7.855469 C 203.640625 8.238281 204.210938 8.585938 204.652344 9.429688 C 205.09375 10.269531 205.617188 11.675781 205.335938 13.242188 C 205.054688 14.808594 202.523438 18.0625 199.914062 15.851562 C 197.304688 13.644531 199.6875 10.945312 199.847656 10.785156 C 200.007812 10.625 200.046875 10.382812 199.347656 9.960938 C 198.644531 9.542969 197.921875 9.582031 197.0625 9.722656 C 196.199219 9.863281 195.820312 10.644531 195.4375 10.582031 C 195.054688 10.523438 195.054688 10.363281 194.535156 9.761719 C 194.011719 9.160156 193.589844 8.980469 192.546875 9.101562 C 191.507812 9.222656 190.605469 10.324219 190.644531 10.566406 C 190.683594 10.804688 191.226562 11.1875 191.847656 12.046875 C 192.46875 12.910156 192.324219 14.527344 191.441406 15.894531 C 190.558594 17.257812 186.824219 18.902344 184.335938 14.886719 C 184.019531 14.375 183.796875 13.871094 183.65625 13.378906 L 181.074219 15.957031 C 181.761719 16.6875 182.082031 17.316406 182.207031 17.515625 C 182.570312 18.085938 183.070312 18.1875 182.808594 18.628906 C 182.546875 19.066406 182.574219 18.949219 182.101562 19.359375 C 181.855469 19.574219 181.363281 19.988281 180.832031 20.773438 L 184.09375 24.035156 C 184.800781 22.640625 186.148438 21.605469 187.375 21.371094 C 189.359375 20.992188 190.964844 22.234375 191.34375 24.019531 C 191.726562 25.804688 190.746094 26.90625 190.421875 26.90625 C 190.105469 26.90625 189.960938 27.207031 189.902344 27.429688 C 189.84375 27.648438 191.207031 28.691406 192.871094 28.230469 C 194.535156 27.769531 194.496094 26.125 194.554688 25.863281 C 194.613281 25.605469 194.957031 25.421875 195.316406 25.824219 C 195.675781 26.226562 196.136719 27.167969 197.601562 27.988281 C 199.066406 28.8125 200.25 28.230469 200.449219 28.03125 C 200.648438 27.832031 200.449219 27.707031 199.328125 26.066406 C 198.203125 24.417969 199.628906 22.476562 200.929688 22.136719 C 202.234375 21.792969 203.898438 21.691406 205.34375 24.101562 C 206.789062 26.507812 204.679688 28.089844 204.761719 28.410156 C 204.84375 28.730469 205.664062 29.273438 206.507812 30.558594 C 207.347656 31.839844 207.027344 34.527344 206.828125 35.046875 C 206.625 35.570312 206.367188 35.949219 206.707031 36.171875 C 207.046875 36.390625 209.394531 35.933594 211.21875 33.464844 C 213.042969 31 210.535156 29.214844 210.996094 28.710938 C 211.457031 28.210938 212 28.871094 212.34375 29.214844 C 212.679688 29.554688 214.367188 31.117188 216.070312 28.730469 C 217.777344 26.347656 215.367188 24.421875 214.929688 24.058594 C 214.488281 23.699219 214.808594 23.578125 215.027344 23.480469 C 215.25 23.378906 216.191406 23.558594 217.433594 22.796875 C 218.679688 22.035156 219.460938 20.328125 220.042969 19.585938 C 220.625 18.847656 221.125 18.945312 221.125 18.585938 C 221.125 18.222656 220.484375 18.023438 219.882812 16.820312 " fill-opacity="1" fill-rule="evenodd"/></g><g clip-path="url(#7ad335df3d)"><path fill="#ddae48" d="M 11.15625 15.453125 C 12.546875 13.949219 14.914062 13.96875 16.445312 15.496094 C 17.96875 17.027344 18.082031 19.484375 16.695312 20.988281 C 15.304688 22.492188 12.9375 22.472656 11.410156 20.945312 C 9.882812 19.414062 9.765625 16.953125 11.15625 15.453125 Z M 3.230469 18.585938 C 3.230469 18.945312 3.734375 18.847656 4.3125 19.585938 C 4.894531 20.328125 5.675781 22.035156 6.921875 22.796875 C 8.164062 23.558594 9.105469 23.378906 9.328125 23.480469 C 9.546875 23.578125 9.867188 23.699219 9.429688 24.058594 C 8.988281 24.421875 6.582031 26.347656 8.285156 28.730469 C 9.988281 31.117188 11.671875 29.554688 12.015625 29.214844 C 12.355469 28.871094 12.894531 28.210938 13.359375 28.710938 C 13.820312 29.214844 11.3125 31 13.140625 33.464844 C 14.960938 35.933594 17.308594 36.390625 17.648438 36.171875 C 17.992188 35.949219 17.730469 35.570312 17.527344 35.046875 C 17.328125 34.527344 17.007812 31.839844 17.851562 30.558594 C 18.691406 29.273438 19.515625 28.730469 19.59375 28.410156 C 19.675781 28.089844 17.570312 26.507812 19.011719 24.101562 C 20.457031 21.691406 22.121094 21.792969 23.425781 22.136719 C 24.726562 22.476562 26.152344 24.417969 25.027344 26.066406 C 23.90625 27.707031 23.707031 27.832031 23.90625 28.03125 C 24.105469 28.230469 25.289062 28.8125 26.753906 27.988281 C 28.21875 27.167969 28.679688 26.226562 29.039062 25.824219 C 29.398438 25.421875 29.742188 25.605469 29.800781 25.863281 C 29.859375 26.125 29.820312 27.769531 31.484375 28.230469 C 33.148438 28.691406 34.511719 27.648438 34.453125 27.429688 C 34.394531 27.207031 34.253906 26.90625 33.933594 26.90625 C 33.609375 26.90625 32.628906 25.804688 33.011719 24.019531 C 33.390625 22.234375 34.996094 20.992188 36.980469 21.371094 C 38.207031 21.605469 39.558594 22.640625 40.261719 24.035156 L 43.523438 20.773438 C 42.992188 19.988281 42.5 19.574219 42.253906 19.359375 C 41.78125 18.949219 41.804688 19.066406 41.546875 18.628906 C 41.285156 18.1875 41.789062 18.085938 42.148438 17.515625 C 42.273438 17.316406 42.59375 16.6875 43.28125 15.957031 L 40.699219 13.378906 C 40.558594 13.871094 40.339844 14.375 40.019531 14.886719 C 37.53125 18.902344 33.796875 17.257812 32.914062 15.894531 C 32.03125 14.527344 31.886719 12.910156 32.507812 12.046875 C 33.132812 11.1875 33.671875 10.804688 33.710938 10.566406 C 33.75 10.324219 32.851562 9.222656 31.804688 9.101562 C 30.765625 8.980469 30.34375 9.160156 29.820312 9.761719 C 29.300781 10.363281 29.300781 10.523438 28.921875 10.582031 C 28.535156 10.644531 28.15625 9.863281 27.296875 9.722656 C 26.433594 9.582031 25.710938 9.542969 25.007812 9.960938 C 24.308594 10.382812 24.347656 10.625 24.507812 10.785156 C 24.667969 10.945312 27.050781 13.644531 24.441406 15.851562 C 21.832031 18.0625 19.300781 14.808594 19.019531 13.242188 C 18.742188 11.675781 19.261719 10.269531 19.703125 9.429688 C 20.144531 8.585938 20.71875 8.238281 20.738281 7.855469 C 20.757812 7.476562 20.679688 7.277344 20.558594 7.277344 C 20.4375 7.277344 19.496094 7.292969 18.289062 5.410156 C 17.089844 3.527344 17.828125 0.976562 17.628906 0.816406 C 17.429688 0.65625 15.542969 0.699219 14.941406 2.261719 C 14.339844 3.824219 14.902344 4.828125 14.960938 5.730469 C 15.023438 6.632812 14.238281 7.574219 13.617188 7.757812 C 13 7.9375 12.335938 6.59375 11.492188 6.554688 C 10.648438 6.511719 10.089844 6.753906 9.226562 7.65625 C 8.363281 8.558594 7.945312 8.980469 8.464844 9.863281 C 8.988281 10.742188 9.628906 11.785156 9.347656 12.226562 C 9.066406 12.667969 8.542969 12.871094 7.460938 12.75 C 6.378906 12.628906 5.796875 12.289062 5.238281 13.449219 C 4.675781 14.613281 5.074219 15.617188 4.476562 16.820312 C 3.871094 18.023438 3.230469 18.222656 3.230469 18.585938 " fill-opacity="1" fill-rule="evenodd"/></g><path fill="#ddae48" d="M 40.597656 19.667969 L 184.382812 19.667969 L 184.382812 17.304688 L 40.597656 17.304688 L 40.597656 19.667969 " fill-opacity="1" fill-rule="evenodd"/></svg>